<?xml version="1.0" encoding="UTF-8"?>
<svg xmlns="http://www.w3.org/2000/svg" width="201" height="38" viewBox="0 0 201 38" fill="none"> <g clip-path="url(#clip0_348_9219)"> <path d="M66.0844 10.8951C67.7667 10.8951 69.1224 11.4394 70.1516 12.5279C71.1807 13.6164 71.6953 15.081 71.6953 16.9216V26.1248H68.4891V17.1295C68.4891 16.1201 68.2318 15.3284 67.7172 14.7545C67.2026 14.1805 66.5 13.8935 65.6094 13.8935C64.6 13.8935 63.8083 14.23 63.2344 14.9029C62.6604 15.556 62.3734 16.5258 62.3734 17.8123V26.1248H59.1672V17.1295C59.1672 16.1003 58.9198 15.3086 58.425 14.7545C57.95 14.1805 57.2672 13.8935 56.3766 13.8935C55.387 13.8935 54.5854 14.23 53.9719 14.9029C53.3781 15.5758 53.0812 16.5456 53.0812 17.8123V26.1248H49.875V11.281H53.0812V13.0623C54.0312 11.6175 55.4464 10.8951 57.3266 10.8951C59.2266 10.8951 60.6318 11.6769 61.5422 13.2404C62.512 11.6769 64.026 10.8951 66.0844 10.8951Z" fill="#101111"/> <path d="M83.5283 10.8951C85.5471 10.8951 87.2887 11.6571 88.7533 13.181C90.1981 14.6852 90.9205 16.5258 90.9205 18.7029C90.9205 20.8998 90.1981 22.7503 88.7533 24.2545C87.3085 25.7586 85.5669 26.5107 83.5283 26.5107C81.2919 26.5107 79.5601 25.6795 78.333 24.017V32.0623H75.1268V11.281H78.333V13.4185C79.5403 11.7362 81.2721 10.8951 83.5283 10.8951ZM79.669 22.117C80.5596 23.0076 81.6778 23.4529 83.0236 23.4529C84.3695 23.4529 85.4877 23.0076 86.3783 22.117C87.269 21.2065 87.7143 20.0685 87.7143 18.7029C87.7143 17.3373 87.269 16.2091 86.3783 15.3185C85.4877 14.4081 84.3695 13.9529 83.0236 13.9529C81.6778 13.9529 80.5596 14.4081 79.669 15.3185C78.7783 16.2091 78.333 17.3373 78.333 18.7029C78.333 20.0487 78.7783 21.1867 79.669 22.117Z" fill="#101111"/> <path d="M96.4162 15.3779C96.4162 15.8331 96.6537 16.2091 97.1287 16.506C97.6037 16.7831 98.2964 17.0503 99.2068 17.3076C99.8995 17.4659 100.503 17.6341 101.018 17.8123C101.532 17.9904 102.077 18.2576 102.651 18.6138C103.225 18.9503 103.66 19.4055 103.957 19.9795C104.273 20.5336 104.422 21.1867 104.402 21.9388C104.402 23.3638 103.848 24.4821 102.74 25.2935C101.631 26.105 100.256 26.5107 98.6131 26.5107C97.1485 26.5107 95.8917 26.2039 94.8427 25.5904C93.7938 24.9769 93.0318 24.1258 92.5568 23.0373L95.3177 21.4341C95.8125 22.8591 96.911 23.5716 98.6131 23.5716C100.295 23.5716 101.136 23.0175 101.136 21.9091C101.136 21.0977 100.196 20.4644 98.3162 20.0091C97.6037 19.831 97 19.6529 96.5052 19.4748C96.0303 19.2966 95.4959 19.0394 94.9021 18.7029C94.3282 18.3664 93.8829 17.9211 93.5662 17.367C93.2693 16.8128 93.1308 16.1696 93.1506 15.4373C93.1506 14.0716 93.6651 12.9732 94.6943 12.142C95.7433 11.3107 97.0396 10.8951 98.5834 10.8951C99.8105 10.8951 100.899 11.1722 101.849 11.7263C102.819 12.2607 103.561 13.0128 104.076 13.9826L101.374 15.4966C100.879 14.3685 99.949 13.8045 98.5834 13.8045C97.95 13.8045 97.4256 13.943 97.0099 14.2201C96.6141 14.4972 96.4162 14.8831 96.4162 15.3779Z" fill="#101111"/> <path d="M113.85 26.5107C111.613 26.5107 109.743 25.7586 108.239 24.2545C106.755 22.7305 106.012 20.88 106.012 18.7029C106.012 16.4862 106.755 14.6357 108.239 13.1513C109.743 11.6472 111.613 10.8951 113.85 10.8951C115.295 10.8951 116.611 11.2414 117.798 11.9341C118.986 12.6269 119.877 13.5571 120.47 14.7248L117.709 16.3279C117.373 15.6154 116.858 15.0612 116.166 14.6654C115.493 14.2498 114.711 14.042 113.82 14.042C112.514 14.042 111.416 14.4873 110.525 15.3779C109.654 16.2883 109.219 17.3966 109.219 18.7029C109.219 20.0091 109.654 21.1175 110.525 22.0279C111.416 22.9185 112.514 23.3638 113.82 23.3638C114.691 23.3638 115.473 23.1659 116.166 22.7701C116.878 22.3545 117.412 21.7904 117.769 21.0779L120.53 22.6513C119.896 23.8388 118.976 24.7789 117.769 25.4716C116.581 26.1644 115.275 26.5107 113.85 26.5107Z" fill="#101111"/> <path d="M134.371 13.3888V11.281H137.578V26.1248H134.371V23.9873C133.164 25.6696 131.432 26.5107 129.176 26.5107C127.138 26.5107 125.396 25.7586 123.951 24.2545C122.506 22.7503 121.784 20.8998 121.784 18.7029C121.784 16.506 122.506 14.6555 123.951 13.1513C125.396 11.6472 127.138 10.8951 129.176 10.8951C131.432 10.8951 133.164 11.7263 134.371 13.3888ZM126.326 22.117C127.217 23.0076 128.335 23.4529 129.681 23.4529C131.027 23.4529 132.145 23.0076 133.035 22.117C133.926 21.2065 134.371 20.0685 134.371 18.7029C134.371 17.3373 133.926 16.2091 133.035 15.3185C132.145 14.4081 131.027 13.9529 129.681 13.9529C128.335 13.9529 127.217 14.4081 126.326 15.3185C125.435 16.2091 124.99 17.3373 124.99 18.7029C124.99 20.0487 125.435 21.1867 126.326 22.117Z" fill="#101111"/> <path d="M149.123 10.8951C150.845 10.8951 152.22 11.4492 153.249 12.5576C154.298 13.6461 154.823 15.1305 154.823 17.0107V26.1248H151.616V17.3373C151.616 16.2289 151.32 15.3779 150.726 14.7841C150.132 14.1904 149.321 13.8935 148.291 13.8935C147.124 13.8935 146.203 14.2597 145.53 14.992C144.858 15.7045 144.521 16.7633 144.521 18.1685V26.1248H141.315V11.281H144.521V13.181C145.511 11.6571 147.045 10.8951 149.123 10.8951Z" fill="#101111"/> <path d="M166.083 10.8951C167.805 10.8951 169.18 11.4492 170.209 12.5576C171.258 13.6461 171.783 15.1305 171.783 17.0107V26.1248H168.577V17.3373C168.577 16.2289 168.28 15.3779 167.686 14.7841C167.092 14.1904 166.281 13.8935 165.252 13.8935C164.084 13.8935 163.164 14.2597 162.491 14.992C161.818 15.7045 161.481 16.7633 161.481 18.1685V26.1248H158.275V11.281H161.481V13.181C162.471 11.6571 164.005 10.8951 166.083 10.8951Z" fill="#101111"/> <path d="M189.574 20.0685H177.759C177.996 21.1769 178.53 22.0378 179.362 22.6513C180.213 23.2649 181.262 23.5716 182.509 23.5716C184.191 23.5716 185.467 22.9581 186.338 21.731L188.98 23.2748C187.536 25.4321 185.368 26.5107 182.479 26.5107C180.084 26.5107 178.135 25.7784 176.63 24.3138C175.146 22.8295 174.404 20.9591 174.404 18.7029C174.404 16.506 175.136 14.6555 176.601 13.1513C178.046 11.6472 179.926 10.8951 182.241 10.8951C184.399 10.8951 186.18 11.6571 187.585 13.181C188.99 14.705 189.693 16.5555 189.693 18.7326C189.693 19.1284 189.653 19.5737 189.574 20.0685ZM177.729 17.456H186.457C186.239 16.2883 185.744 15.3878 184.973 14.7545C184.221 14.1211 183.3 13.8045 182.212 13.8045C181.024 13.8045 180.035 14.131 179.243 14.7841C178.451 15.4373 177.947 16.3279 177.729 17.456Z" fill="#101111"/> <path d="M195.72 11.281V13.7748C196.532 11.9341 198.056 11.0138 200.292 11.0138V14.4873C199.085 14.4081 198.016 14.705 197.086 15.3779C196.176 16.031 195.72 17.1196 195.72 18.6435V26.1248H192.514V11.281H195.72Z" fill="#101111"/> <g clip-path="url(#clip1_348_9219)"> <rect width="38" height="38" rx="10" fill="#2DCA74"/> <path d="M19 30.875C25.5584 30.875 30.875 25.5584 30.875 19C30.875 12.4416 25.5584 7.125 19 7.125C12.4416 7.125 7.125 12.4416 7.125 19C7.125 25.5584 12.4416 30.875 19 30.875Z" fill="#2DCA74"/> <path fill-rule="evenodd" clip-rule="evenodd" d="M19.0008 8.78728C13.3606 8.78728 8.78832 13.3596 8.78832 18.9998C8.78832 24.64 13.3606 29.2123 19.0008 29.2123C24.641 29.2123 29.2133 24.64 29.2133 18.9998C29.2133 13.3596 24.641 8.78728 19.0008 8.78728ZM5.46332 18.9998C5.46332 11.5232 11.5243 5.46228 19.0008 5.46228C26.4774 5.46228 32.5383 11.5232 32.5383 18.9998C32.5383 26.4763 26.4774 32.5373 19.0008 32.5373C11.5243 32.5373 5.46332 26.4763 5.46332 18.9998Z" fill="white"/> <path fill-rule="evenodd" clip-rule="evenodd" d="M27.3253 27.3242C27.9745 26.675 29.0272 26.675 29.6764 27.3242L37.8 35.4483C38.4493 36.0976 38.4492 37.1502 37.8 37.7994C37.1507 38.4487 36.0981 38.4486 35.4488 37.7994L27.3252 29.6753C26.676 29.026 26.676 27.9734 27.3253 27.3242Z" fill="white"/> <path fill-rule="evenodd" clip-rule="evenodd" d="M19.5928 12.8673C20.0121 12.7627 20.4562 12.8539 20.8003 13.1154L25.8003 16.9154C26.4268 17.3916 26.5488 18.2856 26.0725 18.9121C25.5963 19.5387 24.7024 19.6606 24.0758 19.1844L20.4896 16.4589L16.8574 24.346C16.6766 24.7385 16.3275 25.0278 15.9082 25.1325C15.4889 25.2371 15.0448 25.1459 14.7008 24.8844L12.2008 22.9844C11.5742 22.5082 11.4523 21.6142 11.9285 20.9877C12.4047 20.3611 13.2987 20.2392 13.9253 20.7154L15.0115 21.5409L18.6437 13.6538C18.8244 13.2613 19.1736 12.972 19.5928 12.8673Z" fill="white"/> </g> </g> <defs> <clipPath id="clip0_348_9219"> <rect width="200.688" height="38" fill="white"/> </clipPath> <clipPath id="clip1_348_9219"> <rect width="38" height="38" rx="10" fill="white"/> </clipPath> </defs> </svg>